<svg xmlns="http://www.w3.org/2000/svg" width="28.892" height="27.192" viewBox="0 0 28.892 27.192">
  <path id="Path_17" data-name="Path 17" d="M28.726,18.334a.927.927,0,0,0-.721-.4l-17.922-.773A.927.927,0,0,0,10,19.018l16.709.72-3.285,10.25H8.807L6.165,15.607a.927.927,0,0,0-.573-.7l-4.326-1.7a.927.927,0,0,0-.678,1.726l3.847,1.511L7.122,31.083a.927.927,0,0,0,.912.759H8.48L7.462,34.671a.773.773,0,0,0,.727,1.034H8.9a2.781,2.781,0,1,0,4.134,0H19.1a2.781,2.781,0,1,0,4.134,0H24.1a.772.772,0,1,0,0-1.545H9.288l.834-2.318H24.1a.927.927,0,0,0,.883-.644l3.863-12.051A.925.925,0,0,0,28.726,18.334ZM10.97,38.8a1.236,1.236,0,1,1,1.236-1.236A1.237,1.237,0,0,1,10.97,38.8Zm10.2,0A1.236,1.236,0,1,1,22.4,37.56,1.237,1.237,0,0,1,21.167,38.8Z" transform="translate(0 -13.148)" fill="#fdfdfd"/>
</svg>
